PathFileType	4	(X/Y/Z)	../Python\running\Running06\task.trc
DataRate	CameraRate	NumFrames	NumMarkers	Units	OrigDataRate	OrigDataStartFrame	OrigNumFrames
200.000000	200.000000	4	30	mm	200.000000	130	208
Frame#	Time	C7			RBAK			CLAV			STRN			RASI			LASI			PE01			RTH1			RTH2			RTH3			RD5M			RTOE			LTH2			LTH3			LTB2			LTB3			LHEE			LTOE			LD5M			RHEE			RTB2			LPSI			RPSI			T10			RTB3			RTB1			PE03			PE02			LTH1			LTB1			
		X1	Y1	Z1	X2	Y2	Z2	X3	Y3	Z3	X4	Y4	Z4	X5	Y5	Z5	X6	Y6	Z6	X7	Y7	Z7	X8	Y8	Z8	X9	Y9	Z9	X10	Y10	Z10	X11	Y11	Z11	X12	Y12	Z12	X13	Y13	Z13	X14	Y14	Z14	X15	Y15	Z15	X16	Y16	Z16	X17	Y17	Z17	X18	Y18	Z18	X19	Y19	Z19	X20	Y20	Z20	X21	Y21	Z21	X22	Y22	Z22	X23	Y23	Z23	X24	Y24	Z24	X25	Y25	Z25	X26	Y26	Z26	X27	Y27	Z27	X28	Y28	Z28	X29	Y29	Z29	X30	Y30	Z30	

131	0.65	351.2729797363282	1294.805419921875	133.7347564697266	267.9224853515626	1187.77978515625	205.275848388672	464.8715515136721	1187.753662109375	159.3946228027344	499.3772888183596	992.1022949218755	144.6443786621094	424.4740295410159	827.0487670898442	254.0738983154298	438.3201904296877	786.6416625976567	31.19531822204591	255.6079254150392	909.6594848632817	116.9812240600587	411.0959777832034	539.324401855469	279.2217407226564	449.980651855469	473.465759277344	256.7120056152345	460.5801391601565	533.1262817382815	270.9418029785157	393.6770324707034	17.92150115966798	191.3863830566407	430.5318908691409	31.06369209289552	132.4487609863282	369.3955078125001	472.1238098144534	-0.3131750226020814	435.4546508789065	511.0278625488284	-22.2233009338379	192.1240692138673	328.8053588867189	24.12697792053224	233.1033172607423	300.458465576172	20.87564849853516	14.22723293304444	293.9284057617189	100.0831680297852	93.22974395751956	139.1715240478516	59.93808364868167	67.43338012695315	170.5486450195313	15.32123279571534	239.6565704345704	33.73560333251955	132.240707397461	382.2787475585939	227.5066223144532	228.4930572509767	247.1868286132814	868.6161499023442	79.21620941162112	239.5057525634767	884.7113647460942	166.4425048828126	285.3899536132814	1008.283081054688	101.2255935668946	396.1350097656252	185.531723022461	203.0565643310548	436.4943542480471	254.1080627441407	215.2295532226564	229.360321044922	850.1930541992192	98.14340209960943	223.1017913818361	859.889770507813	147.4466400146485	388.2182922363284	527.785583496094	-18.76989746093751	267.6771545410157	351.610565185547	7.770949840545658	
132	0.655	367.3280334472657	1293.681884765625	133.9713897705079	285.0219726562501	1186.456787109375	207.2879791259767	481.2367858886721	1185.84716796875	157.7063903808594	515.0650634765627	989.724731445313	142.7054443359376	439.2859802246096	825.4395141601567	254.2097473144532	453.4038391113284	785.0952148437505	31.41539955139162	271.1213989257814	909.361694335938	116.5780563354493	422.4312438964846	537.8435058593752	279.3894958496095	460.1377258300784	471.4537353515627	256.775848388672	471.8316955566409	530.914733886719	270.6708068847657	393.4514160156252	17.81644821166993	191.3762969970704	430.3217468261721	30.94119834899904	132.4722442626954	393.8654479980471	471.4529724121096	-0.8189466595649724	458.8680114746096	512.3465576171877	-22.77097702026368	221.1967010498048	324.912322998047	20.89246940612794	262.6640930175782	297.2883300781251	18.58596992492676	42.50753784179689	285.8435974121095	94.66601562500003	127.1628875732422	133.5366973876954	56.16957473754886	101.0443572998047	164.0760345458985	11.04192543029786	239.5277709960939	34.59792709350587	132.4402770996094	385.6771545410159	226.009979248047	228.300750732422	262.510711669922	868.2160644531255	78.8196716308594	254.6436767578126	884.559936523438	165.9584350585938	300.9427490234376	1007.209167480469	101.7319412231446	398.8707580566409	183.6605377197266	203.1530609130861	440.4117736816409	251.2891082763673	215.7388305664064	244.5346527099611	850.0079956054692	97.70493316650396	238.0873413085939	859.842895507813	146.9705200195313	411.0114746093752	527.6684570312502	-19.24264144897462	296.3690795898439	349.1470031738282	5.657319068908693	
133	0.66	383.3385314941407	1292.89013671875	134.1396026611329	302.3065795898439	1185.55810546875	209.3537750244142	497.5517883300784	1184.441284179688	155.8745117187501	530.7337646484377	987.8934936523442	140.6770629882813	454.161560058594	824.0082397460942	254.3250579833986	468.5574951171877	784.0482788085942	31.54798126220705	286.6698608398439	909.2770996093755	116.3693389892579	433.3410949707034	536.5405273437502	279.504608154297	469.4811706542971	469.4150695800784	256.8583984375001	482.5801696777346	528.5651855468752	270.3995056152345	393.1511535644534	17.71200370788575	191.3455810546876	430.077087402344	30.80001449584962	132.4949493408204	418.3752441406252	471.4617919921877	-1.288896918296814	482.3363037109377	514.2772216796877	-23.0576286315918	250.3173370361329	321.1537475585939	17.84726524353028	292.3005676269532	294.3955078125001	16.46129798889161	71.15325927734378	277.3052062988282	89.38202667236331	161.584701538086	127.8665313720704	52.34599685668948	135.0607604980469	157.5181274414063	6.812254905700687	239.3551177978517	35.54534149169923	132.5369262695313	388.6722717285159	224.5821533203126	228.0709381103517	277.8511352539064	868.1282348632817	78.62093353271487	269.8624877929689	884.510864257813	165.6333618164063	316.5276184082032	1006.467590332032	102.3267822265626	401.2677307128909	181.8928985595704	203.2166442871095	443.8825683593752	248.5503845214845	216.2485504150392	259.738250732422	850.0617065429692	97.46045684814459	253.1678161621095	860.0100097656255	146.6969757080079	433.8945007324221	528.1744384765627	-19.69378662109376	324.9481506347657	347.0431518554689	3.786925554275514	
134	0.665	399.3071899414065	1292.434448242188	134.2419128417969	319.789031982422	1185.081787109375	211.4793395996095	513.8254394531252	1183.541015625	153.9033508300782	546.3952636718752	986.615356445313	138.561996459961	469.1205139160159	822.755737304688	254.4252014160157	483.7903137207034	783.5005493164067	31.58522605895998	302.2530822753907	909.399047851563	116.3655242919922	443.755065917969	535.3894653320315	279.5343017578126	477.9349670410159	467.3411254882815	256.9174194335939	492.7275085449221	526.0615844726565	270.0994262695314	392.7690429687502	17.62571334838868	191.2795410156251	429.8020629882815	30.65147781372072	132.5157318115235	442.8601379394534	472.1569519042971	-1.726008772850038	505.7734069824221	516.8401489257815	-23.08118438720704	279.4498291015626	317.5321655273439	15.00768280029298	321.9762268066407	291.7907714843751	14.5037603378296	100.1803359985352	268.3526611328126	84.27127838134768	196.4820861816407	122.2201232910157	48.49399185180667	169.4700012207032	150.9325408935547	2.664820432662965	239.1476287841798	36.62562179565431	132.5174407958985	391.336364746094	223.2792358398439	227.7802734375001	293.2163085937501	868.3352050781255	78.62586975097659	285.1765136718751	884.5666503906255	165.4844360351563	332.1566772460939	1006.054992675782	103.0226287841797	403.3786315917971	180.2858886718751	203.2022552490236	446.9878845214846	245.9766845703126	216.6613769531251	274.9832763671876	850.343872070313	97.41167449951178	268.354949951172	860.3712768554692	146.6284637451172	456.7937622070315	529.3020019531252	-20.12145805358887	353.3665161132814	345.2899780273439	2.154937982559205	
